Coordinates
version=1
nRows=19
nColumns=24
inDegrees=yes

Units are S.I. units (second, meters, Newtons, ...)
Angles are in degrees.

endheader
time	pelvis_tilt	pelvis_list	pelvis_rotation	pelvis_tx	pelvis_ty	pelvis_tz	hip_flexion_r	hip_adduction_r	hip_rotation_r	knee_angle_r	ankle_angle_r	subtalar_angle_r	mtp_angle_r	hip_flexion_l	hip_adduction_l	hip_rotation_l	knee_angle_l	ankle_angle_l	subtalar_angle_l	mtp_angle_l	lumbar_extension	lumbar_bending	lumbar_rotation
      4.35500000	    -16.77890814	     11.50195774	     -9.19208994	     -0.86731789	     -0.03222419	     -0.25167823	     25.62851629	     -7.33924444	      5.19286815	    -68.19901779	    -29.35105551	    -21.69122464	     -6.44637943	     35.51377204	     13.22793003	      3.52866270	    -26.86494129	     21.03368571	      2.34317003	    -82.52416484	     15.65911521	     -8.82328704	      8.76468155
      4.36000000	    -16.74594518	     11.47625884	     -9.15692311	     -0.85990480	     -0.03066855	     -0.25145932	     26.67442335	     -6.94971936	      5.54485768	    -68.87135389	    -28.30628572	    -22.59524488	     -6.57157519	     34.49131197	     13.33575262	      3.80651094	    -26.11472395	     21.21341735	      2.30453903	    -82.49189039	     15.68612831	     -8.77358009	      8.59836795
      4.36500000	    -16.64801699	     11.43731927	     -9.08560874	     -0.85248616	     -0.02904440	     -0.25132954	     27.61791600	     -6.60438644	      5.83012438	    -69.47538314	    -26.99440773	    -23.10314116	     -6.98106894	     33.35973214	     13.49043852	      4.24928010	    -25.29799809	     21.30028656	      2.11182554	    -82.44354381	     15.62940039	     -8.72955248	      8.39860416
      4.37000000	    -16.49959479	     11.27006476	     -8.96809899	     -0.84510629	     -0.02734866	     -0.25095158	     28.46468384	     -6.14825836	      5.85096617	    -70.07567317	    -24.95672382	    -23.29263102	    -10.62135302	     32.17830621	     13.49698008	      4.60973694	    -24.56052572	     21.42606330	      2.20554820	    -81.90836492	     15.48770218	     -8.62444057	      8.10658769
      4.37500000	    -16.52617301	     11.18018832	     -8.85619240	     -0.83780498	     -0.02586679	     -0.25081044	     29.49435984	     -5.76943053	      6.01657072	    -70.47200158	    -23.86776969	    -23.81839389	    -10.48269681	     31.16562686	     13.58269825	      5.13906961	    -23.72159803	     21.42007511	      1.91513799	    -81.87887550	     15.54363040	     -8.52996433	      7.89961664
      4.38000000	    -16.44876085	     11.01125921	     -8.70852590	     -0.83048735	     -0.02422659	     -0.25067152	     30.33164628	     -5.37195383	      6.08972041	    -70.73173439	    -22.60982808	    -24.08124596	    -10.26894089	     30.00919822	     13.62089159	      5.73899158	    -22.86115595	     21.39333839	      1.65243064	    -81.79714135	     15.46428621	     -8.39428138	      7.60195391
      4.38500000	    -16.38115595	     10.81977912	     -8.54289352	     -0.82320824	     -0.02259288	     -0.25049987	     31.14780255	     -4.97774068	      6.09884655	    -70.88292963	    -21.34026309	    -24.28671251	     -9.95237474	     28.84753436	     13.62875841	      6.39917896	    -21.97304328	     21.29564587	      1.35598373	    -81.65415035	     15.38934758	     -8.25368404	      7.28792983
      4.39000000	    -16.33185105	     10.56669887	     -8.35249890	     -0.81598989	     -0.02098001	     -0.25035206	     31.93521848	     -4.55071250	      6.03536448	    -70.91082687	    -20.04195013	    -24.39435403	     -9.44431282	     27.70208645	     13.57312468	      7.12821744	    -21.09698823	     21.16831724	      1.02613356	    -81.45500169	     15.31167389	     -8.05665483	      6.95058804
      4.39500000	    -16.27016346	     10.28793662	     -8.18961893	     -0.80882723	     -0.01934713	     -0.25030406	     32.65157339	     -4.11931957	      6.04276551	    -70.70473980	    -19.41893056	    -24.79228011	     -6.26749254	     26.52574044	     13.49542817	      7.96531088	    -20.19422672	     20.63737399	      0.55514601	    -79.30159334	     15.21154486	     -7.81500803	      6.65230759
      4.40000000	    -16.27666061	      9.98050264	     -7.97566761	     -0.80172204	     -0.01783702	     -0.25018913	     33.43509691	     -3.68014580	      5.90085638	    -70.50704749	    -18.09655432	    -24.70671120	     -5.46511389	     25.44031144	     13.35682248	      8.79765749	    -19.31296585	     20.44103638	      0.13376019	    -79.20218677	     15.17098708	     -7.56519883	      6.33181246
      4.40500000	    -16.25407264	      9.63615573	     -7.74825781	     -0.79465984	     -0.01629765	     -0.25010731	     34.13540917	     -3.24062098	      5.73073651	    -70.15176757	    -16.97579503	    -24.65793274	     -3.98733876	     24.30863071	     13.18256584	      9.74091088	    -18.40902114	     20.14753558	     -0.37637442	    -78.90287561	     15.08503905	     -7.28800975	      5.97816415
      4.41000000	    -16.33337317	      9.20493373	     -7.45334613	     -0.78775611	     -0.01488557	     -0.25013833	     34.86150101	     -2.74679223	      5.56372815	    -69.53224118	    -16.70867865	    -25.06697040	      0.42382190	     23.36453554	     12.89881719	     10.57354570	    -17.66471004	     19.77410401	     -0.63277251	    -77.48490721	     15.06671037	     -6.92543458	      5.49798885
      4.41500000	    -16.39675217	      8.78812953	     -7.13332613	     -0.78086259	     -0.01355739	     -0.25002423	     35.59300471	     -2.29616349	      5.23639463	    -69.00783423	    -15.43695294	    -24.74127622	      1.04100538	     22.44313818	     12.59526734	     11.26510791	    -16.96504133	     19.67116922	     -0.73529581	    -77.41609415	     15.03560924	     -6.61092753	      5.02368009
      4.42000000	    -16.38136222	      8.44951115	     -6.90393567	     -0.77393012	     -0.01218441	     -0.24995362	     36.23336839	     -1.92035837	      5.03544091	    -68.34600397	    -14.50785554	    -24.56019818	      2.56329916	     21.33865221	     12.37649126	     12.33286399	    -16.04975372	     19.22129822	     -1.42296681	    -77.07236868	     14.94827626	     -6.34651371	      4.71815812
      4.42500000	    -16.41601346	      8.05820095	     -6.57090850	     -0.76708832	     -0.01093231	     -0.24997805	     36.86752960	     -1.56173172	      4.75562269	    -67.54743551	    -13.79070359	    -24.40050918	      4.80326929	     20.37430060	     12.10049957	     13.25563453	    -15.30054903	     18.83565241	     -1.80481547	    -76.36237125	     14.88422718	     -6.05630932	      4.27325236
      4.43000000	    -16.54467283	      7.62350788	     -6.14815658	     -0.76039391	     -0.00988266	     -0.24985629	     37.58269013	     -1.18048457	      4.33024161	    -66.72443427	    -12.91808163	    -24.17366527	      5.47354534	     19.66631281	     11.73470470	     13.76116996	    -14.82144803	     18.83397431	     -1.55383810	    -76.17219997	     14.89072632	     -5.76896263	      3.70141858
      4.43500000	    -16.53312870	      7.32152189	     -5.86512731	     -0.75354597	     -0.00874372	     -0.24986360	     38.15050468	     -0.92821571	      4.11671540	    -65.77909102	    -12.35100534	    -23.96203666	      7.48358953	     18.62606026	     11.51999880	     14.80117058	    -13.96478509	     18.26999214	     -2.25210806	    -75.52611895	     14.79672263	     -5.55819009	      3.36489320
      4.44000000	    -16.67085521	      6.95165039	     -5.43657867	     -0.74685849	     -0.00784852	     -0.24990266	     38.81871041	     -0.67093567	      3.79138332	    -64.67952370	    -12.20054784	    -24.11431863	     10.42119370	     17.93016918	     11.22658294	     15.42292617	    -13.44873589	     17.84796588	     -2.27705188	    -73.88602232	     14.82867794	     -5.32036660	      2.81538356
      4.44500000	    -16.70780276	      6.63274974	     -5.02568769	     -0.74016081	     -0.00696688	     -0.24979232	     39.39573432	     -0.47107839	      3.43489251	    -63.66658024	    -11.40676359	    -23.63668139	     10.80783317	     17.14395497	     10.96143515	     15.89908798	    -12.92773676	     17.73189801	     -2.18215141	    -73.77714905	     14.75786390	     -5.15958962	      2.31663496
